<mxGraphModel dx="0" dy="0" grid="1" gridSize="10" guides="1" tooltips="1" connect="1" arrows="1" fold="1"
              page="0" pageScale="1" background="none" math="0" shadow="0">
    <root>
        <mxCell id="0"/>
        <mxCell id="1" parent="0"/>
        <mxCell id="node0" parent="1" vertex="1"
                value="&lt;p style=&quot;margin:0px;margin-top:4px;text-align:center;&quot;&gt;&lt;b&gt;OpenStreetMap&lt;/b&gt;&lt;/p&gt;&lt;hr size=&quot;1&quot;/&gt;&lt;p style=&quot;margin:0 0 0 4px;line-height:1.6;&quot;&gt;+ OpenStreetMap(String): &lt;/p&gt;&lt;hr size=&quot;1&quot;/&gt;&lt;p style=&quot;margin:0 0 0 4px;line-height:1.6;&quot;&gt;+ processWay(Element): Unit&lt;br/&gt;+ processNode(Element): Unit&lt;br/&gt;+ parseXML(String): Unit&lt;/p&gt;&lt;hr size=&quot;1&quot;/&gt;&lt;p style=&quot;margin:0 0 0 4px;line-height:1.6;&quot;&gt;+ cyclableGraph: GeographicGraph&lt;br/&gt;+ filename: String&lt;/p&gt;"
                style="verticalAlign=top;align=left;overflow=fill;fontSize=14;fontFamily=Helvetica;html=1;rounded=0;shadow=0;comic=0;labelBackgroundColor=none;strokeWidth=1;">
            <mxGeometry x="-253" y="-111" width="297" height="186" as="geometry"/>
        </mxCell>

    </root>
</mxGraphModel>
